<?xml version="1.0" encoding="utf-8"?><svg viewBox="0 0 18 32" xmlns="http://www.w3.org/2000/svg" xmlns:xlink="http://www.w3.org/1999/xlink"><style>:root>svg{display:none}:root>svg:target{display:block}</style><svg viewBox="0 0 18 32" id="activity-next" xmlns="http://www.w3.org/2000/svg"><path d="M.94 31.06a1.5 1.5 0 01-.146-1.952l.145-.169L13.878 16 .939 3.06a1.5 1.5 0 01-.145-1.952L.94.939A1.5 1.5 0 012.892.794l.169.145 14 14a1.5 1.5 0 01.145 1.953l-.145.169-14 14a1.5 1.5 0 01-2.122 0z"/></svg><svg viewBox="0 0 18 32" id="activity-prev" xmlns="http://www.w3.org/2000/svg"><path d="M17.06 31.06a1.5 1.5 0 00.146-1.952l-.145-.169L4.122 16 17.061 3.06a1.5 1.5 0 00.145-1.952L17.06.939a1.5 1.5 0 00-1.953-.145l-.169.145-14 14a1.5 1.5 0 00-.145 1.953l.145.169 14 14a1.5 1.5 0 002.122 0z"/></svg></svg>