<svg width="193" height="7" viewBox="0 0 193 7" fill="none" xmlns="http://www.w3.org/2000/svg">
<path d="M0 3.49017C20.5876 -1.49177 27.5013 -0.386653 43.3904 2.15323L43.3921 2.15358C44.3441 2.30576 45.3283 2.46314 46.3496 2.6245C54.4092 4.06723 74.0022 5.96599 87.8984 2.01853C101.088 -1.7281 115.169 0.515895 127.869 2.53966C131.054 3.04729 134.153 3.54107 137.128 3.923C148.091 5.73503 157.439 4.38805 166.484 3.08469C174.962 1.86288 183.174 0.679335 192.203 2.17262C188.689 1.64144 179.449 1.30971 166.021 4.78868C152.376 8.32356 138.519 5.65625 126.08 3.26215C119.023 1.90374 112.423 0.633452 106.578 0.633452C100.341 0.211697 92.5433 1.92088 84.9856 3.57743C78.5819 4.98103 72.3504 6.34689 67.3858 6.34689C55.2712 6.84897 47.6662 5.12231 40.4123 3.47528C30.1571 1.1468 20.6031 -1.0224 0 3.49017Z" fill="white"/>
</svg>
