<svg width="20" height="20" viewBox="0 0 20 20" fill="none" xmlns="http://www.w3.org/2000/svg">
<path fill-rule="evenodd" clip-rule="evenodd" d="M16.7985 2.98111C14.9501 1.13046 12.4918 0.110961 9.87276 0.109863C4.47624 0.109863 0.0843 4.50159 0.0821047 9.89964C0.0814461 11.6252 0.532144 13.3094 1.38897 14.7943L0 19.8677L5.19016 18.5061C6.62018 19.2861 8.23023 19.6973 9.86881 19.6978H9.87276C9.87298 19.6978 9.87254 19.6978 9.87276 19.6978C15.2686 19.6978 19.661 15.3056 19.6632 9.90732C19.6643 7.29139 18.647 4.83176 16.7985 2.98111ZM5.89683 10.2559C5.77455 10.0926 4.89796 8.92953 4.89796 7.7254C4.89796 6.52127 5.52999 5.92942 5.75413 5.68464C5.97827 5.43986 6.24347 5.37861 6.40658 5.37861C6.56969 5.37861 6.73302 5.38015 6.8755 5.38718C7.02566 5.39486 7.22741 5.3301 7.42586 5.80714C7.62981 6.29691 8.11892 7.50126 8.18017 7.62354C8.24142 7.74604 8.28204 7.88873 8.20059 8.05207C8.11914 8.21518 8.07831 8.31726 7.95603 8.46017C7.83375 8.60309 7.69918 8.77915 7.58898 8.8887C7.46648 9.01076 7.33893 9.14314 7.48162 9.38791C7.62432 9.63291 8.11519 10.434 8.8425 11.0827C9.77682 11.9163 10.5652 12.1744 10.8097 12.2969C11.0543 12.4194 11.197 12.399 11.3397 12.2357C11.4824 12.0723 11.9513 11.5213 12.1144 11.2765C12.2775 11.0318 12.4406 11.0726 12.6648 11.154C12.8891 11.2357 14.0917 11.8276 14.3363 11.9498C14.5808 12.0723 14.7439 12.1336 14.8052 12.2357C14.8664 12.3378 14.8664 12.8275 14.6625 13.399C14.4585 13.9704 13.4812 14.492 13.0112 14.562C12.5897 14.6251 12.0564 14.6514 11.4703 14.465C11.1151 14.3524 10.6593 14.2018 10.0756 13.9498C7.6219 12.8901 6.01933 10.4193 5.89683 10.2559Z" fill="#00973C"/>
</svg>
