<svg width="1719" height="530" viewBox="0 0 1719 530" fill="none" xmlns="http://www.w3.org/2000/svg">
<path d="M0.0390625 199.057C173.992 12.7706 327.367 -14.4578 461.62 80.5141L461.635 80.5272C469.679 86.2177 477.995 92.1023 486.624 98.136C554.723 152.083 720.272 223.082 837.686 75.4773C949.126 -64.6176 1068.11 19.2905 1175.41 94.9638C1202.33 113.945 1228.51 132.409 1253.65 146.69C1346.28 214.446 1425.26 164.079 1501.68 115.344C1573.32 69.6575 1642.71 25.4019 1719 81.2392C1689.31 61.3773 1611.23 48.9733 1497.77 179.06C1382.48 311.237 1265.4 211.5 1160.3 121.979C1100.67 71.1851 1122.89 81.2392 1073.5 81.2392C1020.8 65.4688 876.932 71.8262 813.075 133.768C758.967 186.252 706.315 237.325 664.367 237.325C562.006 256.099 402.79 260.086 341.498 198.5C254.848 111.433 174.123 30.3213 0.0390625 199.057Z" fill="#EAF3FB"/>
<path d="M0.0390625 479.057C173.992 292.771 327.367 265.542 461.62 360.514L461.635 360.527C469.679 366.218 477.995 372.102 486.624 378.136C554.723 432.083 720.272 503.082 837.686 355.477C949.126 215.382 1068.11 299.291 1175.41 374.964C1202.33 393.945 1228.51 412.409 1253.65 426.69C1346.28 494.446 1425.26 444.079 1501.68 395.344C1573.32 349.657 1642.71 305.402 1719 361.239C1689.31 341.377 1611.23 328.973 1497.77 459.06C1382.48 591.237 1265.4 491.5 1160.3 401.979C1100.67 351.185 1122.89 361.239 1073.5 361.239C1020.8 345.469 876.932 351.826 813.075 413.768C758.967 466.252 706.315 517.325 664.367 517.325C562.006 536.099 402.79 540.086 341.498 478.5C254.848 391.433 174.123 310.321 0.0390625 479.057Z" fill="#EAF3FB"/>
</svg>
