<svg width="1684" height="530" viewBox="0 0 1684 530" fill="none" xmlns="http://www.w3.org/2000/svg">
<path d="M-34.959 199.057C138.994 12.7706 292.369 -14.4578 426.622 80.5141L426.637 80.5272C434.681 86.2177 442.997 92.1023 451.626 98.136C519.725 152.083 685.274 223.082 802.688 75.4773C914.128 -64.6176 1033.11 19.2905 1140.41 94.9638C1167.33 113.945 1193.51 132.409 1218.65 146.69C1311.28 214.446 1390.26 164.079 1466.69 115.344C1538.32 69.6575 1607.71 25.4019 1684 81.2392C1654.31 61.3773 1576.23 48.9733 1462.77 179.06C1347.49 311.237 1230.4 211.5 1125.3 121.979C1065.67 71.1851 1087.89 81.2392 1038.5 81.2392C985.799 65.4688 841.934 71.8262 778.076 133.768C723.969 186.252 671.317 237.325 629.369 237.325C527.008 256.099 367.791 260.086 306.5 198.5C219.85 111.433 139.125 30.3213 -34.959 199.057Z" fill="#EAF3FB"/>
<path d="M-34.959 479.057C138.994 292.771 292.369 265.542 426.622 360.514L426.637 360.527C434.681 366.218 442.997 372.102 451.626 378.136C519.725 432.083 685.274 503.082 802.688 355.477C914.128 215.382 1033.11 299.291 1140.41 374.964C1167.33 393.945 1193.51 412.409 1218.65 426.69C1311.28 494.446 1390.26 444.079 1466.69 395.344C1538.32 349.657 1607.71 305.402 1684 361.239C1654.31 341.377 1576.23 328.973 1462.77 459.06C1347.49 591.237 1230.4 491.5 1125.3 401.979C1065.67 351.185 1087.89 361.239 1038.5 361.239C985.799 345.469 841.934 351.826 778.076 413.768C723.969 466.252 671.317 517.325 629.369 517.325C527.008 536.099 367.791 540.086 306.5 478.5C219.85 391.433 139.125 310.321 -34.959 479.057Z" fill="#EAF3FB"/>
</svg>
